<svg width="80" height="80" viewBox="0 0 80 80" fill="none" xmlns="http://www.w3.org/2000/svg">
  <g clip-path="url(#clip0_57_5)">
  <rect width="80" height="80" rx="40" fill="#F3F0EA"/>
  <path d="M18.1178 17.3726C12.1166 23.3738 8.74519 31.5131 8.74519 40C8.74518 48.487 12.1166 56.6263 18.1178 62.6275C24.1189 68.6286 32.2582 72 40.7452 72C49.2321 72 57.3714 68.6286 63.3726 62.6275L40.7452 40L18.1178 17.3726Z" fill="#71A894"/>
  <circle cx="40.7451" cy="40" r="22.4" transform="rotate(135 40.7451 40)" fill="#303031"/>
  <path opacity="0.5" fill-rule="evenodd" clip-rule="evenodd" d="M24.906 24.1607C16.1582 32.9085 16.1582 47.0914 24.906 55.8391C33.6537 64.5869 47.8366 64.5869 56.5843 55.8391C56.5843 55.8391 56.5843 55.8391 56.5843 55.8391L40.7452 39.9999L24.906 24.1607Z" fill="#71A894"/>
  </g>
  <defs>
  <clipPath id="clip0_57_5">
  <rect width="80" height="80" rx="40" fill="white"/>
  </clipPath>
  </defs>
  </svg>
  