<svg width="1200" height="385" xmlns="http://www.w3.org/2000/svg" xmlns:xlink="http://www.w3.org/1999/xlink" overflow="hidden"><defs><clipPath id="clip0"><rect x="45" y="168" width="1200" height="385"/></clipPath><clipPath id="clip1"><rect x="44" y="170" width="378" height="380"/></clipPath></defs><g clip-path="url(#clip0)" transform="translate(-45 -168)"><g clip-path="url(#clip1)"><path d="M421.858 345.318C421.865 345.179 421.838 345.047 421.796 344.922 421.792 344.915 421.796 344.905 421.792 344.898L384.192 246.153C384.185 246.139 384.172 246.132 384.168 246.118 384.102 245.972 384.019 245.833 383.887 245.729L301.194 179.949C301.065 179.845 300.909 179.772 300.735 179.74 300.721 179.74 300.711 179.737 300.697 179.737L233.201 170.557C233.07 170.539 232.931 170.55 232.799 170.584L200.629 179.727 199.712 179.727C199.528 179.727 199.355 179.779 199.205 179.869 199.205 179.869 199.205 179.869 199.202 179.869L198.383 180.362 119.203 202.869C119.179 202.879 119.161 202.9 119.137 202.907 119.033 202.948 118.936 203.001 118.849 203.077 118.811 203.108 118.776 203.132 118.745 203.167 118.727 203.185 118.707 203.195 118.689 203.216L49.35 293.232C49.3291 293.26 49.3257 293.291 49.3083 293.319 49.2805 293.36 49.2528 293.395 49.2354 293.437 49.2215 293.464 49.218 293.496 49.2076 293.523 49.1903 293.576 49.1798 293.631 49.1729 293.687 49.166 293.718 49.1521 293.746 49.1486 293.78L44.7806 372.946C44.7771 373.015 44.7806 373.085 44.791 373.154L51.1868 413.192C51.1937 413.244 51.2215 413.289 51.2354 413.341 51.2458 413.372 51.2458 413.411 51.2597 413.442 51.2631 413.449 51.2701 413.456 51.2736 413.466 51.277 413.473 51.277 413.487 51.284 413.497L83.5648 474.986C83.6203 475.094 83.6967 475.188 83.787 475.267L121.651 508.743C121.71 508.812 121.779 508.871 121.852 508.92L165.636 538.43C165.758 538.513 165.893 538.562 166.039 538.586L234.729 549.27 234.74 549.27C234.747 549.27 234.747 549.273 234.754 549.273 234.802 549.28 234.854 549.284 234.906 549.284 234.972 549.284 235.042 549.277 235.108 549.263 235.108 549.263 235.111 549.263 235.111 549.259 235.115 549.259 235.115 549.259 235.115 549.259 235.118 549.259 235.118 549.259 235.122 549.259 235.122 549.259 235.122 549.259 235.125 549.259 235.129 549.256 235.135 549.256 235.139 549.256 235.139 549.256 235.139 549.256 235.142 549.256 235.142 549.256 235.149 549.252 235.146 549.252 235.146 549.252 235.149 549.252 235.149 549.252L235.153 549.249C235.156 549.249 235.156 549.249 235.156 549.249 235.156 549.249 235.16 549.249 235.163 549.249 235.163 549.249 235.163 549.245 235.167 549.245 235.17 549.245 235.17 549.245 235.177 549.242L347.422 516.437C347.464 516.427 347.488 516.385 347.523 516.367 347.634 516.319 347.717 516.256 347.804 516.173 347.842 516.138 347.898 516.128 347.929 516.086L416.216 426.025C416.327 425.879 416.372 425.716 416.393 425.549 416.397 425.529 416.414 425.515 416.418 425.494ZM414.497 424.643 384.963 432.112 419.487 351.023ZM294.655 413.157 185.827 374.863 267.906 315.752ZM267.909 312.561 186.063 259.021 292.478 228.577ZM266.739 314.159 184.702 373.238 184.702 260.496ZM182.727 373.578 89.6237 327.881 182.727 260.604ZM202.889 483.139 114.137 433.403 183.049 376.991ZM185.001 376.668 294.058 415.046 204.928 483.274ZM295.253 416.619 300.999 498.205 206.709 484.396ZM296.52 412.473 269.819 315.245 360.616 324.322ZM361.884 325.943 382.022 432.275 297.801 414.07ZM383.633 430.174 363.727 325.047 419.553 345.818ZM362.023 321.231 296.218 228.639 382.043 247.253ZM360.366 322.308 269.77 313.256 294.312 229.365ZM185.011 257.267 200.428 182.167 291.201 226.886ZM182.97 257.375 113.339 234.09 198.289 182.733ZM181.574 258.993 89.3216 325.658 111.7 235.629ZM87.1515 326.193 51.5722 293.808 109.196 237.497ZM110.116 233.833 59.4922 283.305 117.165 208.438ZM86.53 328.304 53.0687 408.3 51.1624 296.107ZM87.4432 331.242 111.019 432.049 53.4784 412.442ZM89.148 329.849 181.897 375.376 112.991 431.785ZM201.681 484.729 123.22 506.829 113.634 435.389ZM203.719 486.212 232.958 546.551 125.644 508.204ZM235.274 546.794 205.952 486.285 299.53 499.993ZM302.926 497.399 297.19 415.963 381.047 434.087ZM380.717 436.9 346.616 514.246 304.062 499.024ZM383.981 434.4 412.945 427.077 351.453 508.177ZM363.62 322.898 383.428 249.701 419.171 343.564ZM301.301 182.563 379.338 244.642 295.041 226.361ZM233.139 172.543 285.965 179.727 207.862 179.727ZM299.43 181.706 293.145 225.643 203.959 181.706ZM112.616 232.219 120.28 204.619 191.966 184.244ZM46.7563 372.946 49.6104 321.259 50.9298 399.088ZM85.2314 473.903 59.0339 424.004 116.033 501.145ZM54.8325 414.99 111.488 434.296 120.901 504.406ZM129.446 511.659 224.743 545.711 166.557 536.662ZM302.232 500.468 343.946 515.395 240.066 545.756Z" transform="matrix(1.00044 0 0 1 -0.497812 0.24964)"/></g><path d="M46.2945 1.51734C67.5476 1.51734 85.5717-11.0033 85.5717-32.2565 85.5717-74.3774 33.2044-63.94 33.2044-83.6724 33.2044-90.1237 38.1383-93.1618 44.2077-93.1618 50.659-93.1618 57.1103-89.5543 62.8046-83.2939L79.4988-99.2312C71.1517-108.908 58.4401-115.359 44.3987-115.359 26.3746-115.359 7.96863-104.544 7.96863-81.7766 7.96863-43.0688 60.5269-52.3673 60.5269-32.444 60.5269-26.1836 55.2145-22.0101 46.4854-22.0101 36.0516-22.0101 27.892-27.892 23.7184-36.8085L3.03468-23.9059C10.4339-9.67694 26.3746 1.51734 46.2945 1.51734Z" fill="#616161" transform="matrix(1.00044 0 0 1 469.563 404.517)"/><path d="M23.7184-88.6064C30.9266-88.6064 36.9995-94.6792 36.9995-101.887 36.9995-109.29 30.9266-115.172 23.7184-115.172 16.5067-115.172 10.4339-109.29 10.4339-101.887 10.4339-94.6792 16.5067-88.6064 23.7184-88.6064ZM11.5727 0 35.6696 0 35.6696-75.8947 11.5727-75.8947Z" fill="#616161" transform="matrix(1.00044 0 0 1 551.945 404.517)"/><path d="M101.7-77.4121C90.8841-77.4121 82.537-72.4781 77.7905-64.131 73.4295-72.0996 65.8393-77.4121 56.1624-77.4121 47.4333-77.4121 40.4126-73.2385 35.4821-66.5963L35.4821-75.8947 11.1943-75.8947 11.1943 0 35.4821 0 35.4821-44.0202C35.4821-49.5201 38.8953-55.9714 46.2945-55.9714 52.9367-55.9714 57.3013-50.659 57.3013-44.0202L57.3013 0 81.5856 0 81.5856-44.0202C81.5856-49.5201 85.0022-55.9714 92.4014-55.9714 99.0437-55.9714 103.596-50.659 103.596-44.0202L103.596 0 127.693 0 127.693-48.0028C127.693-65.6484 118.398-77.4121 101.7-77.4121Z" fill="#616161" transform="matrix(1.00044 0 0 1 591.807 404.517)"/><path d="M56.9228-57.1103 56.9228-75.8947 38.8953-75.8947 38.8953-105.113 14.7984-105.113 14.7984-75.8947 2.08678-75.8947 2.08678-57.1103 14.7984-57.1103 14.7984-27.1315C14.7984-11.0033 28.4614 1.51734 44.5896 1.51734 49.7111 1.51734 54.8325 0.378467 56.7318-0.947903L56.7318-19.7324 47.6243-19.7324C42.4994-19.7324 38.8953-23.7184 38.8953-29.9787L38.8953-57.1103Z" fill="#616161" transform="matrix(1.00044 0 0 1 721.645 404.517)"/><path d="M56.7318-77.4121C47.8153-77.4121 40.4126-72.8601 35.4821-65.4609L35.4821-75.8947 11.1943-75.8947 11.1943 0 35.4821 0 35.4821-36.2391C35.4821-48.7632 44.0202-55.9714 55.9714-55.9714 58.8186-55.9714 61.2838-55.5929 62.9921-55.2145L62.9921-76.6551C61.2838-77.2246 59.0096-77.4121 56.7318-77.4121Z" fill="#616161" transform="matrix(1.00044 0 0 1 774.795 404.517)"/><path d="M48.1937 1.51734C73.617 1.51734 90.3147-15.1803 90.3147-37.9474 90.3147-60.7144 73.617-77.4121 48.1937-77.4121 22.767-77.4121 5.88186-60.7144 5.88186-37.9474 5.88186-15.1803 22.767 1.51734 48.1937 1.51734ZM48.1937-19.9233C37.7564-20.1108 30.1697-27.701 30.1697-37.9474 30.1697-48.1937 37.7564-55.7839 48.1937-55.9714 58.4401-55.7839 66.2178-48.1937 66.2178-37.9474 66.2178-27.701 58.4401-20.1108 48.1937-19.9233Z" fill="#616161" transform="matrix(1.00044 0 0 1 829.842 404.517)"/><path d="M57.1103-77.4121C48.3812-77.4121 41.173-74.3774 35.4821-69.2525L35.4821-75.7038 11.1943-75.8947 11.1943 45.5375 35.4821 45.725 35.4821-6.64226C41.173-1.51734 48.3812 1.51734 57.1103 1.51734 77.9815 1.51734 94.4882-15.9373 94.4882-37.9474 94.4882-59.9575 77.9815-77.4121 57.1103-77.4121ZM52.3673-19.9233C42.3119-19.9233 34.3433-27.892 34.3433-37.9474 34.3433-48.0028 42.3119-55.9714 52.3673-55.9714 62.4227-55.9714 70.3913-48.0028 70.3913-37.9474 70.3913-27.892 62.4227-19.9233 52.3673-19.9233Z" fill="#616161" transform="matrix(1.00044 0 0 1 918.678 404.517)"/><path d="M48.1937 1.51734C73.617 1.51734 90.3147-15.1803 90.3147-37.9474 90.3147-60.7144 73.617-77.4121 48.1937-77.4121 22.767-77.4121 5.88186-60.7144 5.88186-37.9474 5.88186-15.1803 22.767 1.51734 48.1937 1.51734ZM48.1937-19.9233C37.7564-20.1108 30.1697-27.701 30.1697-37.9474 30.1697-48.1937 37.7564-55.7839 48.1937-55.9714 58.4401-55.7839 66.2178-48.1937 66.2178-37.9474 66.2178-27.701 58.4401-20.1108 48.1937-19.9233Z" fill="#616161" transform="matrix(1.00044 0 0 1 1011.5 404.517)"/><path d="M11.1943 0 35.4821 0 35.4821-129.97 11.1943-129.97Z" fill="#616161" transform="matrix(1.00044 0 0 1 1100.34 404.517)"/><path d="M23.7184-88.6064C30.9266-88.6064 36.9995-94.6792 36.9995-101.887 36.9995-109.29 30.9266-115.172 23.7184-115.172 16.5067-115.172 10.4339-109.29 10.4339-101.887 10.4339-94.6792 16.5067-88.6064 23.7184-88.6064ZM11.5727 0 35.6696 0 35.6696-75.8947 11.5727-75.8947Z" fill="#616161" transform="matrix(1.00044 0 0 1 1139.44 404.517)"/><path d="M35.6696 1.51734C52.7458 1.51734 63.1831-8.91654 63.1831-23.149 63.1831-38.3258 50.659-44.3987 39.8432-48.5722 34.3433-50.85 31.687-51.9888 31.687-54.8325 31.687-57.3013 33.5828-59.1971 37.7564-59.1971 42.6903-59.1971 47.2458-56.5408 49.5201-53.6971L61.6658-67.3567C55.9714-73.0475 46.6764-77.4121 36.0516-77.4121 18.7844-77.4121 7.77766-66.0268 7.77766-53.1277 7.77766-37.9474 22.958-32.8259 31.687-29.6003 38.5168-26.9441 40.7945-25.0448 40.7945-22.3886 40.7945-19.3539 38.1383-17.6456 34.1523-17.6456 30.1697-17.6456 24.8573-19.1629 21.4407-25.6142L3.60411-16.6977C8.1596-4.93396 22.1976 1.51734 35.6696 1.51734Z" fill="#616161" transform="matrix(1.00044 0 0 1 1179.3 404.517)"/></g></svg>