<svg width="725" height="720" xmlns="http://www.w3.org/2000/svg" xmlns:xlink="http://www.w3.org/1999/xlink" overflow="hidden"><defs><clipPath id="clip0"><rect x="227" y="0" width="725" height="720"/></clipPath><clipPath id="clip1"><rect x="226" y="0" width="724" height="726"/></clipPath></defs><g clip-path="url(#clip0)" transform="translate(-227 0)"><g clip-path="url(#clip1)"><path d="M813.079 424.998C813.098 424.734 813.042 424.48 812.957 424.244 812.957 424.225 812.957 424.215 812.957 424.197L740.924 235.241C740.915 235.222 740.886 235.203 740.877 235.185 740.754 234.902 740.594 234.637 740.339 234.439L581.942 108.563C581.697 108.365 581.386 108.224 581.055 108.167 581.037 108.158 581.008 108.158 580.989 108.158L451.698 90.5906C451.443 90.5623 451.17 90.5812 450.925 90.6472L389.298 108.139 387.543 108.139C387.194 108.139 386.864 108.233 386.571 108.412 386.571 108.412 386.571 108.412 386.562 108.412L384.996 109.356 233.326 152.425C233.279 152.434 233.241 152.481 233.203 152.491 232.996 152.576 232.817 152.679 232.647 152.821 232.571 152.878 232.505 152.925 232.449 152.991 232.411 153.028 232.373 153.047 232.345 153.085L99.5157 325.332C99.478 325.379 99.4685 325.445 99.4308 325.502 99.3836 325.577 99.327 325.643 99.2893 325.728 99.2704 325.785 99.261 325.841 99.2421 325.888 99.2138 325.992 99.1949 326.096 99.176 326.2 99.1666 326.266 99.1383 326.313 99.1289 326.379L90.7699 477.86C90.7604 478.002 90.7699 478.134 90.7887 478.266L103.035 554.875C103.044 554.978 103.101 555.063 103.129 555.158 103.148 555.224 103.148 555.29 103.176 555.356 103.176 555.365 103.195 555.384 103.205 555.403 103.214 555.422 103.214 555.441 103.223 555.459L165.058 673.118C165.161 673.325 165.312 673.505 165.482 673.665L238.015 737.716C238.128 737.848 238.26 737.961 238.402 738.056L322.266 794.522C322.501 794.682 322.766 794.776 323.039 794.824L454.623 815.259 454.642 815.268C454.651 815.268 454.651 815.268 454.661 815.268 454.764 815.287 454.859 815.297 454.953 815.297 454.953 815.297 454.953 815.297 454.963 815.297 455.085 815.297 455.227 815.278 455.349 815.249 455.349 815.249 455.349 815.249 455.359 815.249 455.368 815.249 455.368 815.249 455.368 815.24 455.368 815.24 455.378 815.24 455.378 815.24 455.387 815.24 455.397 815.24 455.406 815.24 455.406 815.24 455.406 815.24 455.415 815.24 455.415 815.24 455.425 815.231 455.415 815.231 455.415 815.231 455.425 815.231 455.425 815.231L455.434 815.231C455.434 815.231 455.434 815.221 455.444 815.221 455.444 815.221 455.444 815.221 455.453 815.221 455.453 815.231 455.453 815.221 455.453 815.221 455.463 815.221 455.472 815.221 455.472 815.212L670.486 752.444C670.57 752.415 670.618 752.34 670.684 752.302 670.891 752.217 671.061 752.094 671.221 751.934 671.297 751.868 671.401 751.849 671.467 751.764L802.267 579.433C802.475 579.159 802.569 578.848 802.617 578.518 802.617 578.48 802.654 578.461 802.654 578.423ZM798.975 576.791 742.396 591.084 808.541 435.914ZM569.413 554.808 360.947 481.53 518.174 368.429ZM518.184 362.325 361.4 259.875 565.243 201.616ZM515.938 365.372 358.796 478.426 358.796 262.696ZM355.003 479.077 176.662 391.638 355.003 262.894ZM393.629 688.723 223.618 593.556 355.626 485.606ZM359.362 484.993 568.272 558.422 397.534 688.977ZM570.555 561.432 581.565 717.555 400.95 691.128ZM572.979 553.497 521.844 367.457 695.77 384.817ZM698.195 387.921 736.763 591.396 575.442 556.563ZM739.858 587.377 701.723 386.213 808.664 425.961ZM698.459 378.911 572.404 201.739 736.81 237.355ZM695.28 380.977 521.74 363.646 568.753 203.126ZM359.381 256.516 388.911 112.809 562.79 198.38ZM355.475 256.724 222.089 212.164 384.817 113.894ZM352.796 259.818 176.087 387.383 218.948 215.108ZM171.926 388.411 103.771 326.436 214.155 218.684ZM215.919 211.674 118.941 306.34 229.42 163.076ZM170.737 392.449 106.639 545.515 102.988 330.832ZM172.492 398.063 217.646 590.962 107.431 553.44ZM175.756 395.402 353.418 482.511 221.42 590.462ZM391.317 691.77 241.025 734.056 222.656 597.349ZM395.214 694.6 451.227 810.06 245.657 736.688ZM455.661 810.532 399.497 694.742 578.753 720.97ZM585.254 716.007 574.272 560.177 734.905 594.868ZM734.263 600.245 668.948 748.245 587.433 719.121ZM740.518 595.462 796.003 581.442 678.212 736.631ZM701.516 382.1 739.462 242.034 807.928 421.64ZM582.14 113.573 731.631 232.354 570.149 197.371ZM451.576 94.3927 552.771 108.139 403.157 108.139ZM578.555 111.922 566.517 196.003 395.676 111.922ZM220.703 208.579 235.383 155.774 372.703 116.781ZM94.5531 477.87 100.016 378.967 102.544 527.892ZM168.246 671.052 118.064 575.574 227.25 723.178ZM110.026 558.318 218.551 595.264 236.581 729.423ZM252.94 743.301 435.49 808.456 324.03 791.144ZM583.924 721.885 663.834 750.443 464.841 808.541Z" transform="matrix(1.00016 0 0 1 136.151 -89.9106)"/></g></g></svg>