<svg width="769" height="248" xmlns="http://www.w3.org/2000/svg" xmlns:xlink="http://www.w3.org/1999/xlink" overflow="hidden"><defs><clipPath id="clip0"><rect x="254" y="296" width="769" height="248"/></clipPath><clipPath id="clip1"><rect x="256" y="299" width="241" height="242"/></clipPath></defs><g clip-path="url(#clip0)" transform="translate(-254 -296)"><g clip-path="url(#clip1)"><path d="M262.141 219.084C262.148 218.996 262.13 218.912 262.102 218.833 262.1 218.828 262.104 218.822 262.1 218.817L238.244 156.169C238.24 156.16 238.231 156.156 238.229 156.147 238.187 156.055 238.134 155.967 238.051 155.901L185.587 114.167C185.505 114.101 185.406 114.054 185.296 114.035 185.287 114.035 185.28 114.032 185.272 114.032L142.45 108.208C142.366 108.197 142.278 108.204 142.194 108.226L121.784 114.026 121.205 114.026C121.088 114.026 120.978 114.059 120.881 114.116 120.881 114.116 120.881 114.116 120.879 114.116L120.359 114.429 70.1245 128.708C70.1091 128.715 70.0981 128.728 70.0849 128.732 70.0166 128.759 69.9549 128.792 69.8998 128.84 69.8778 128.86 69.8535 128.876 69.8337 128.898 69.8227 128.909 69.8095 128.915 69.7985 128.928L25.8068 186.038C25.7936 186.056 25.7914 186.076 25.7804 186.093 25.7628 186.12 25.7451 186.142 25.7341 186.168 25.7253 186.186 25.7231 186.206 25.7165 186.223 25.7055 186.256 25.6989 186.292 25.6945 186.327 25.6901 186.347 25.6813 186.364 25.6791 186.386L22.91 236.612C22.9056 236.656 22.91 236.7 22.9144 236.744L26.9721 262.146C26.9766 262.179 26.9942 262.207 27.0052 262.24 27.0096 262.26 27.0096 262.285 27.0184 262.304 27.0206 262.309 27.025 262.313 27.0272 262.32 27.0316 262.324 27.0316 262.333 27.0338 262.34L47.5163 301.351C47.5493 301.419 47.5978 301.478 47.6551 301.529L71.6775 322.767C71.715 322.811 71.759 322.849 71.8053 322.879L99.5837 341.602C99.6608 341.655 99.7467 341.685 99.8392 341.701L143.419 348.479 143.426 348.479C143.43 348.479 143.43 348.481 143.434 348.481 143.467 348.486 143.498 348.488 143.531 348.488 143.575 348.488 143.619 348.484 143.659 348.475 143.659 348.475 143.661 348.475 143.661 348.473 143.663 348.473 143.666 348.473 143.666 348.473 143.666 348.473 143.666 348.473 143.668 348.473 143.668 348.473 143.668 348.473 143.67 348.473 143.672 348.47 143.677 348.47 143.679 348.47 143.679 348.47 143.679 348.47 143.681 348.47 143.683 348.47 143.686 348.468 143.683 348.468 143.683 348.468 143.686 348.468 143.686 348.468L143.688 348.466C143.69 348.466 143.69 348.466 143.692 348.466 143.692 348.466 143.692 348.466 143.694 348.466 143.694 348.466 143.694 348.464 143.697 348.464 143.699 348.464 143.701 348.464 143.703 348.461L214.916 327.649C214.942 327.642 214.958 327.616 214.982 327.605 215.05 327.574 215.103 327.534 215.158 327.481 215.182 327.459 215.218 327.453 215.237 327.426L258.562 270.288C258.632 270.195 258.661 270.092 258.676 269.986 258.676 269.973 258.687 269.964 258.689 269.951ZM257.471 269.411 238.733 274.149 260.637 222.703ZM181.439 262.124 112.394 237.828 164.468 200.326ZM164.47 198.302 112.543 164.333 180.057 145.018ZM163.727 199.315 111.68 236.797 111.68 165.269ZM110.426 237.013 51.3581 208.021 110.426 165.338ZM123.218 306.523 66.9105 274.969 110.631 239.178ZM111.869 238.974 181.06 263.322 124.512 306.609ZM181.817 264.32 185.465 316.081 125.642 307.32ZM182.622 261.69 165.684 200.005 223.289 205.763ZM224.091 206.792 236.868 274.253 183.434 262.703ZM237.892 272.92 225.261 206.223 260.679 219.401ZM224.181 203.802 182.43 145.058 236.883 156.868ZM223.128 204.485 165.65 198.742 181.221 145.518ZM111.876 163.221 121.657 115.574 179.247 143.945ZM110.581 163.289 66.4038 148.516 120.302 115.934ZM109.695 164.316 51.1665 206.611 65.3641 149.492ZM49.7897 206.95 27.2167 186.404 63.7758 150.677ZM64.3596 148.353 32.2415 179.74 68.8314 132.242ZM49.3953 208.29 28.1661 259.042 26.9567 187.862ZM49.9747 210.153 64.9323 274.11 28.4261 261.67ZM51.0563 209.27 109.9 238.154 66.1835 273.942ZM122.452 307.532 72.6754 321.553 66.5911 276.229ZM123.745 308.472 142.295 346.754 74.2109 322.426ZM143.765 346.908 125.161 308.519 184.531 317.216ZM186.686 315.57 183.047 263.904 236.251 275.403ZM236.039 277.187 214.405 326.259 187.406 316.601ZM238.11 275.601 256.487 270.955 217.473 322.408ZM225.192 204.86 237.76 158.421 260.436 217.971ZM185.655 115.826 235.165 155.211 181.683 143.613ZM142.412 109.468 175.925 114.026 126.373 114.026ZM184.468 115.281 180.48 143.157 123.897 115.281ZM65.9456 147.329 70.8074 129.818 116.288 116.892ZM24.1635 236.612 25.972 203.82 26.8091 253.198ZM48.5715 300.663 31.9507 269.006 68.1133 317.947ZM29.2874 263.287 65.2319 275.535 71.2039 320.016ZM76.623 324.617 137.083 346.221 100.167 340.48ZM186.245 317.518 212.711 326.988 146.805 346.25Z" transform="matrix(1 0 0 1.00009 234.064 191.669)"/></g><path d="M69.001-84.4895 69.001-28.5869 27.459-84.4895 8.30929-84.4895 8.30929 0 26.895 0 26.895-56.0459 68.2961 0 87.448 0 87.448-84.4895Z" fill="#616161" transform="matrix(1 0 0 1.00009 513.841 449.106)"/><path d="M65.6218-28.3049C65.6218-45.906 53.5103-57.5945 35.3453-57.5945 17.1803-57.5945 4.36612-45.765 4.36612-28.1639 4.36612-10.5606 17.0393 1.12568 35.9093 1.12568 51.5387 1.12568 61.9606-7.18141 64.7759-19.4339L47.4546-19.4339C45.906-14.9268 41.8218-12.2503 35.6273-12.2503 27.459-12.2503 23.2339-17.1803 22.5311-25.2054L65.6218-25.2054ZM35.6273-43.7934C41.683-43.7934 45.2032-40.9781 47.0338-36.0502L23.6568-36.0502C25.4874-40.8371 29.2896-43.7934 35.6273-43.7934Z" fill="#616161" transform="matrix(1 0 0 1.00009 604.105 449.106)"/><path d="M42.2448-42.3857 42.2448-56.3278 28.8666-56.3278 28.8666-78.013 10.9836-78.013 10.9836-56.3278 1.54863-56.3278 1.54863-42.3857 10.9836-42.3857 10.9836-20.1366C10.9836-8.16831 21.1235 1.12568 33.0918 1.12568 36.894 1.12568 40.6961 0.28197 42.1038-0.704924L42.1038-14.6448 35.3453-14.6448C31.5431-14.6448 28.8666-17.6011 28.8666-22.2492L28.8666-42.3857Z" fill="#616161" transform="matrix(1 0 0 1.00009 668.318 449.106)"/><path d="M26.4743 1.12568C39.1475 1.12568 46.8929-6.61747 46.8929-17.1803 46.8929-28.4459 37.5989-32.9508 29.5716-36.0502 25.4874-37.7399 23.5158-38.5836 23.5158-40.6961 23.5158-42.5267 24.9257-43.9344 28.0229-43.9344 31.6841-43.9344 35.0634-41.9628 36.753-39.8502L45.765-49.9901C41.542-54.2153 34.6404-57.4535 26.7563-57.4535 13.9399-57.4535 5.77377-49.0054 5.77377-39.4295 5.77377-28.1639 17.0393-24.3617 23.5158-21.9672 28.5869-19.9956 30.2765-18.588 30.2765-16.6164 30.2765-14.3628 28.3049-13.0962 25.3464-13.0962 22.3901-13.0962 18.447-14.2218 15.9115-19.0109L2.67651-12.3912C6.05574-3.6612 16.4754 1.12568 26.4743 1.12568Z" fill="#616161" transform="matrix(1 0 0 1.00009 707.746 449.106)"/><path d="M35.7683 1.12568C52.6666 1.12568 64.212-8.73004 66.6065-22.8131L48.0185-22.8131C46.1879-18.024 41.542-14.9268 35.7683-14.7858 28.0229-14.9268 22.3901-20.5595 22.3901-28.1639 22.3901-35.7683 28.0229-41.4011 35.7683-41.542 41.542-41.4011 46.1879-38.3016 48.0185-33.5147L66.6065-33.5147C64.212-47.5956 52.6666-57.4535 35.7683-57.4535 16.8983-57.4535 4.36612-45.0623 4.36612-28.1639 4.36612-11.2656 16.8983 1.12568 35.7683 1.12568Z" fill="#616161" transform="matrix(1 0 0 1.00009 751.681 449.106)"/><path d="M71.1136-14.6448C68.7191-14.6448 66.1835-15.4907 66.1835-20.1366L66.1835-56.3278 48.3005-56.3278 48.3005-51.3978C44.0754-55.1999 38.7246-57.4535 32.2481-57.4535 16.6164-57.4535 4.36612-44.4983 4.36612-28.1639 4.36612-11.8295 16.6164 1.12568 32.2481 1.12568 40.4142 1.12568 47.0338-2.53552 51.5387-8.44807 55.059-2.67651 61.2557 1.12568 68.86 1.12568 70.6906 1.12568 72.3803 0.563939 73.6469 0L73.6469-14.6448ZM35.7683-14.7858C28.3049-14.7858 22.3901-20.7005 22.3901-28.1639 22.3901-35.6273 28.3049-41.542 35.7683-41.542 43.0907-41.542 49.1442-35.6273 49.1442-28.1639 49.1442-20.7005 43.0907-14.7858 35.7683-14.7858Z" fill="#616161" transform="matrix(1 0 0 1.00009 815.894 449.106)"/><path d="M42.3857-57.4535C35.9093-57.4535 30.5584-55.1999 26.3333-51.3978L26.3333-56.1868 8.30929-56.3278 8.30929 33.7967 26.3333 33.9377 26.3333-4.92786C30.5584-1.12568 35.9093 1.12568 42.3857 1.12568 57.8765 1.12568 70.1267-11.8295 70.1267-28.1639 70.1267-44.4983 57.8765-57.4535 42.3857-57.4535ZM38.8655-14.7858C31.4022-14.7858 25.4874-20.7005 25.4874-28.1639 25.4874-35.6273 31.4022-41.542 38.8655-41.542 46.3289-41.542 52.2437-35.6273 52.2437-28.1639 52.2437-20.7005 46.3289-14.7858 38.8655-14.7858Z" fill="#616161" transform="matrix(1 0 0 1.00009 886.021 449.106)"/><path d="M65.6218-28.3049C65.6218-45.906 53.5103-57.5945 35.3453-57.5945 17.1803-57.5945 4.36612-45.765 4.36612-28.1639 4.36612-10.5606 17.0393 1.12568 35.9093 1.12568 51.5387 1.12568 61.9606-7.18141 64.7759-19.4339L47.4546-19.4339C45.906-14.9268 41.8218-12.2503 35.6273-12.2503 27.459-12.2503 23.2339-17.1803 22.5311-25.2054L65.6218-25.2054ZM35.6273-43.7934C41.683-43.7934 45.2032-40.9781 47.0338-36.0502L23.6568-36.0502C25.4874-40.8371 29.2896-43.7934 35.6273-43.7934Z" fill="#616161" transform="matrix(1 0 0 1.00009 954.88 449.106)"/></g></svg>